<svg width="40" height="40" viewBox="0 0 50 50" fill="currentColor" xmlns="http://www.w3.org/2000/svg">
<path d="M19.2708 45.8334L18.4375 39.1667C17.9861 38.9931 17.5611 38.7847 17.1625 38.5417C16.7625 38.2986 16.3715 38.0382 15.9896 37.7604L9.79167 40.3646L4.0625 30.4688L9.42709 26.4063C9.39236 26.1632 9.375 25.9285 9.375 25.7021V24.2959C9.375 24.0709 9.39236 23.8368 9.42709 23.5938L4.0625 19.5313L9.79167 9.63544L15.9896 12.2396C16.3715 11.9618 16.7708 11.7014 17.1875 11.4584C17.6042 11.2153 18.0208 11.007 18.4375 10.8334L19.2708 4.16669H30.7292L31.5625 10.8334C32.0139 11.007 32.4396 11.2153 32.8396 11.4584C33.2382 11.7014 33.6285 11.9618 34.0104 12.2396L40.2083 9.63544L45.9375 19.5313L40.5729 23.5938C40.6076 23.8368 40.625 24.0709 40.625 24.2959V25.7021C40.625 25.9285 40.5903 26.1632 40.5208 26.4063L45.8854 30.4688L40.1563 40.3646L34.0104 37.7604C33.6285 38.0382 33.2292 38.2986 32.8125 38.5417C32.3958 38.7847 31.9792 38.9931 31.5625 39.1667L30.7292 45.8334H19.2708ZM25.1042 32.2917C27.1181 32.2917 28.8368 31.5799 30.2604 30.1563C31.684 28.7327 32.3958 27.0139 32.3958 25C32.3958 22.9861 31.684 21.2674 30.2604 19.8438C28.8368 18.4202 27.1181 17.7084 25.1042 17.7084C23.0556 17.7084 21.3278 18.4202 19.9208 19.8438C18.5153 21.2674 17.8125 22.9861 17.8125 25C17.8125 27.0139 18.5153 28.7327 19.9208 30.1563C21.3278 31.5799 23.0556 32.2917 25.1042 32.2917ZM25.1042 28.125C24.2361 28.125 23.4986 27.8209 22.8917 27.2125C22.2833 26.6056 21.9792 25.8681 21.9792 25C21.9792 24.132 22.2833 23.3945 22.8917 22.7875C23.4986 22.1792 24.2361 21.875 25.1042 21.875C25.9722 21.875 26.7104 22.1792 27.3188 22.7875C27.9257 23.3945 28.2292 24.132 28.2292 25C28.2292 25.8681 27.9257 26.6056 27.3188 27.2125C26.7104 27.8209 25.9722 28.125 25.1042 28.125ZM22.9167 41.6667H27.0313L27.7604 36.1459C28.8368 35.8681 29.8354 35.4597 30.7563 34.9209C31.6757 34.3834 32.5174 33.7327 33.2813 32.9688L38.4375 35.1042L40.4688 31.5625L35.9896 28.1771C36.1632 27.691 36.2847 27.1785 36.3542 26.6396C36.4236 26.1021 36.4583 25.5556 36.4583 25C36.4583 24.4445 36.4236 23.8972 36.3542 23.3584C36.2847 22.8209 36.1632 22.309 35.9896 21.8229L40.4688 18.4375L38.4375 14.8959L33.2813 17.0834C32.5174 16.2847 31.6757 15.616 30.7563 15.0771C29.8354 14.5396 28.8368 14.132 27.7604 13.8542L27.0833 8.33335H22.9688L22.2396 13.8542C21.1632 14.132 20.1653 14.5396 19.2458 15.0771C18.325 15.616 17.4826 16.2674 16.7188 17.0313L11.5625 14.8959L9.53125 18.4375L14.0104 21.7709C13.8368 22.2917 13.7153 22.8125 13.6458 23.3334C13.5764 23.8542 13.5417 24.4097 13.5417 25C13.5417 25.5556 13.5764 26.0938 13.6458 26.6146C13.7153 27.1354 13.8368 27.6563 14.0104 28.1771L9.53125 31.5625L11.5625 35.1042L16.7188 32.9167C17.4826 33.7153 18.325 34.3834 19.2458 34.9209C20.1653 35.4597 21.1632 35.8681 22.2396 36.1459L22.9167 41.6667Z" fill="currentColor"/>
</svg>
